<?xml version="1.0" encoding="UTF-8" standalone="no"?><svg xmlns="http://www.w3.org/2000/svg" xmlns:xlink="http://www.w3.org/1999/xlink" contentScriptType="text/ecmascript" fill="#000000" width="4110" zoomAndPan="magnify" contentStyleType="text/css" viewBox="-2336.4 -1443.3 4109.7 3727.6" height="3728" preserveAspectRatio="xMidYMid meet" version="1"><g><g><g fill="#013f3f"><g><g><g><g id="change1_1"><path d="M 3230.4824 2142.1973 C 3229.7246 2142.1974 3228.9672 2142.2095 3228.209 2142.2324 C 3228.029 2142.2294 3228.0287 2142.2285 3227.8457 2142.2285 C 3204.3127 2142.9575 3182.2402 2154.7251 3168.7402 2173.7891 L 3153.5977 2195.8613 C 3134.7167 2222.8603 3103.887 2238.9141 3070.959 2238.9141 L 3029.3652 2239.0977 L 3029.1836 2239.0977 C 2992.8806 2239.0977 2960.5903 2265.8239 2954.5703 2301.6699 L 2950.1934 2328.4863 C 2944.7204 2360.9583 2923.9225 2388.686 2894.1875 2402.916 L 2856.9727 2420.6113 C 2824.2267 2436.2993 2806.9881 2474.7928 2817.2031 2509.6348 L 2817.2031 2509.8164 L 2824.6816 2534.9922 C 2833.9856 2566.8262 2827.3275 2601.3052 2806.4395 2627.1172 L 2780.5352 2659.2246 L 2780.3535 2659.2246 C 2757.5495 2687.5916 2758.8265 2729.6397 2783.2715 2756.6387 C 2786.3735 2759.9227 2790.5689 2761.9297 2795.1289 2761.9297 L 2788.3789 2761.9297 L 2801.332 2776.3418 C 2823.405 2800.7868 2832.1606 2834.5356 2824.6816 2866.6426 L 2815.1973 2907.5059 C 2807.3523 2941.7099 2825.4137 2977.3753 2856.9727 2992.1523 C 2857.0637 2992.3353 2857.8848 2992.6992 2857.8848 2992.6992 C 2858.7048 2993.2472 2859.3439 2993.7932 2860.2559 2994.1582 L 2884.8828 3004.0098 C 2915.6208 3016.5058 2938.3333 3043.1405 2945.4473 3075.5215 L 2945.4473 3075.7031 L 2954.3867 3115.6543 C 2962.4137 3151.0453 2996.1618 3176.4038 3032.4648 3174.2148 C 3034.6538 3174.0328 3036.752 3173.4853 3038.668 3172.5723 L 3035.748 3174.0312 L 3059.2812 3172.5723 C 3092.1172 3170.6573 3123.6774 3184.7946 3144.1094 3210.5156 L 3170.0137 3242.9883 C 3192.6347 3271.4463 3233.8615 3279.6559 3265.6035 3261.9609 L 3265.7871 3261.9609 L 3289.6836 3248.8262 L 3289.8672 3248.8262 C 3318.6902 3232.9552 3353.1697 3232.0431 3382.7227 3246.4551 L 3419.9375 3264.5156 C 3452.6825 3280.3866 3493.2714 3269.5337 3514.0684 3239.8887 L 3529.3926 3218.3613 C 3548.1826 3191.3623 3579.1022 3175.218 3612.0312 3175.127 L 3653.2598 3174.9453 L 3653.9902 3174.9453 C 3690.2932 3174.9453 3722.2163 3148.0365 3728.2363 3112.1895 L 3732.6152 3085.5547 C 3738.0882 3053.0827 3759.0667 3025.5376 3788.8027 3011.3086 L 3788.8027 3010.9434 L 3825.8359 2993.0664 L 3826.1992 2993.0664 C 3858.6712 2977.3784 3875.8197 2939.6141 3865.9688 2904.9531 C 3865.9688 2904.7711 3865.6965 2904.5893 3865.6055 2904.4062 L 3865.6055 2904.043 L 3858.3066 2878.6855 C 3849.0026 2846.9445 3855.7522 2812.8294 3876.3672 2787.1074 L 3902.2715 2754.8184 C 3925.0755 2726.5434 3923.6165 2684.4013 3899.3535 2657.4023 L 3899.3535 2657.2207 L 3881.4766 2637.5176 C 3859.4026 2613.0726 3850.8276 2579.3248 3858.3066 2547.2168 L 3867.793 2506.5352 C 3875.911 2471.2352 3856.4826 2434.112 3823.0996 2420.248 L 3822.916 2420.248 L 3798.2891 2410.2148 C 3767.4591 2397.7188 3744.655 2370.9925 3737.541 2338.5215 L 3728.4199 2298.0234 C 3720.3929 2262.4504 3686.8254 2237.3665 3650.5234 2239.6465 L 3650.3418 2239.6465 L 3624.2559 2241.4707 C 3591.0539 2243.6597 3558.7644 2229.4307 3538.1504 2203.3438 L 3512.793 2170.8711 C 3490.172 2142.4121 3448.7615 2134.296 3417.0195 2152.082 C 3415.0125 2153.177 3413.3717 2154.6369 3412.0938 2156.4609 L 3413.7363 2154.0898 L 3393.8516 2165.0332 C 3365.0286 2181.0872 3330.2768 2182.3651 3300.6328 2167.9531 L 3263.2344 2149.7109 C 3253.1431 2144.7506 3241.8502 2142.1957 3230.4824 2142.1973 z M 3340.9492 2315.8984 L 3341.3145 2315.8984 C 3557.4895 2315.8984 3732.2539 2490.8445 3732.2539 2707.0195 C 3732.2539 2923.1945 3557.4885 3097.957 3341.3145 3097.957 C 3125.1405 3097.957 2950.1934 2923.1935 2950.1934 2707.0195 C 2950.1934 2491.0265 3124.9572 2316.0814 3340.9492 2315.8984 z" transform="translate(-2523.151,-1821.151)"/><path d="m 348.417,1345.035 c -6.385,0.365 -12.04,4.561 -14.229,10.581 l -0.729,1.824 c -0.547,1.459 -0.729,2.919 -0.912,4.378 v -1.459 l -29.188,83.916 -237.52,682.638 c -4.378,12.223 7.023,24.263 19.52,20.797 l 66.586,-18.79 c 36.668,-8.757 101.429,-8.027 144.299,4.743 44.877,15.688 90.939,48.16 122.591,88.111 l 40.681,55.822 c 7.57,10.49 23.807,8.21 28.094,-4.013 l 237.336,-682.639 12.405,-35.025 c 3.831,-11.037 -4.926,-22.438 -16.601,-21.344 -53.816,5.017 -106.628,-17.331 -140.286,-59.653 l -25.904,-32.654 c -3.284,-4.014 -8.301,-6.294 -13.5,-6.021 l -26.634,1.46 c -62.572,3.83 -121.496,-29.006 -151.049,-84.281 -2.92,-5.472 -8.758,-8.756 -14.96,-8.391 z"/><path d="m 1287.182,1342.664 c -5.838,0.182 -11.037,3.557 -13.682,8.756 -27.364,53.815 -82.822,87.747 -143.205,87.564 l -41.41,0.183 c -5.108,0 -10.216,2.554 -13.135,6.75 l -15.142,21.708 c -32.472,46.337 -87.2,71.876 -143.569,67.498 -11.493,-0.912 -20.066,10.398 -16.236,21.344 l 12.041,34.479 237.336,682.639 c 4.287,12.223 20.522,14.411 28.094,4.013 l 40.681,-55.822 c 31.742,-39.951 76.071,-71.876 120.948,-87.564 7.662,-2.371 20.067,-5.929 29.735,-7.479 42.05,-6.932 79.538,-6.385 116.206,2.372 l 66.585,18.607 c 12.496,3.466 23.898,-8.574 19.52,-20.797 l -237.519,-682.638 -29.188,-83.916 v 2.554 c 0,-1.824 -0.365,-3.466 -0.913,-5.108 l -1.459,-4.378 c -2.28,-6.57 -8.665,-10.948 -15.688,-10.765 z"/><path d="m 818.164,594.717 c -152.508,0 -291.152,138.644 -291.152,291.152 0,152.508 138.645,291.151 291.152,291.151 152.507,0 291.152,-138.644 291.152,-291.151 0,-152.509 -138.644,-291.152 -291.152,-291.152 z"/><path d="m -982.563,538.529 c -6.065,0.821 -11.812,3.102 -16.965,6.75 -10.353,7.297 -16.601,19.063 -16.601,31.742 v 64.031 125.691 35.757 5.838 20.432 59.836 c 0,0.639 0.365,1.186 0.365,1.824 0,0.638 -0.365,1.186 -0.365,1.824 0,30.738 24.719,55.457 55.458,55.457 h 109.456 12.405 125.691 52.174 c 16.51,0 31.377,-10.489 36.85,-26.087 l 11.675,-33.019 c 4.196,-11.949 2.372,-24.992 -4.925,-35.391 -7.343,-10.398 -19.063,-16.601 -31.742,-16.601 h -64.032 -125.691 -35.755 -5.838 -20.249 v 0.182 h -4.378 v -7.479 -20.979 -29.188 -12.405 -125.691 -52.174 c -0.045,-16.509 -10.489,-31.377 -26.087,-36.85 l -33.202,-11.676 c -5.976,-2.097 -12.179,-2.644 -18.244,-1.824 z"/><path d="m -697.796,371.245 c -12.906,0 -24.992,6.202 -32.472,16.783 -7.479,10.58 -9.212,24.171 -4.925,36.303 l 11.857,33.566 c 5.564,15.871 20.523,26.634 37.397,26.634 h 53.269 116.57 6.021 36.303 128.428 64.944 c 1.688,0 3.101,-1.095 4.742,-1.276 2.463,0.456 4.881,1.276 7.48,1.276 h 53.268 57.83 58.741 6.02 36.303 128.426 64.944 c 12.952,0 24.992,-6.385 32.472,-16.965 7.479,-10.581 9.395,-23.898 5.107,-36.121 l -12.04,-33.566 c -5.563,-15.871 -20.614,-26.634 -37.397,-26.634 h -53.086 -128.427 -36.303 -6.02 -58.741 -57.83 -65.126 c -1.687,0 -3.101,1.095 -4.743,1.276 -2.463,-0.456 -4.88,-1.276 -7.479,-1.276 h -53.086 -128.428 -36.303 -6.021 -116.57 z"/><path d="m -697.796,71.884 c -12.906,0 -24.992,6.202 -32.472,16.783 -7.48,10.581 -9.212,23.989 -4.925,36.12 l 11.857,33.749 c 5.564,15.871 20.523,26.634 37.397,26.634 h 53.269 116.57 6.021 36.303 128.428 63.302 1.642 51.627 116.569 5.838 36.485 59.471 68.774 35.573 6.75 46.519 12.223 104.348 66.221 104.346 65.126 51.444 116.57 6.02 36.485 66.221 62.024 107.814 6.02 36.485 128.063 65.126 c 12.952,0 24.992,-6.385 32.472,-16.965 7.479,-10.581 9.395,-23.716 5.108,-35.938 l -12.04,-33.749 c -5.655,-15.871 -20.614,-26.634 -37.397,-26.634 H 1116.612 988.55 952.065 946.045 838.23 764.348 709.802 673.5 667.48 550.91 487.426 434.34 383.078 329.81 263.772 159.424 147.201 111.445 100.682 82.075 58.359 h -80.814 -47.431 -36.485 -5.838 -116.569 -63.485 -1.642 -51.444 -128.428 -36.303 -6.021 -116.57 z"/><path d="m -1307.282,-0.174 v 90.301 384.554 146.67 422.316 c 0,97.051 78.763,175.677 175.859,175.677 H 257.021 c -31.925,-29.279 -49.984,-69.413 -50.896,-113.104 h -1337.913 c -36.577,0 -62.39,-25.539 -62.39,-62.572 V 621.351 474.681 96.693 2.197 c -8.483,0.091 -16.875,0.912 -25.357,0.912 -29.507,0 -58.422,-2.28 -87.747,-3.283 z"/><path d="m -531.606,-206.681 c -32.746,44.877 -73.427,83.186 -120.401,113.287 h 19.337 116.57 6.021 36.303 128.428 63.302 1.642 51.627 116.569 6.021 36.303 59.471 68.774 35.756 6.567 46.519 12.223 104.348 66.221 104.345 65.126 51.444 116.57 6.202 36.303 66.221 62.024 107.814 6.02 36.303 128.246 65.126 c 12.952,0 24.992,-6.203 32.472,-16.783 7.48,-10.58 9.395,-23.898 5.108,-36.121 l -12.04,-33.749 c -5.655,-15.871 -20.614,-26.634 -37.397,-26.634 H 1116.613 988.367 952.064 946.044 838.23 764.348 709.802 673.682 667.48 550.91 487.426 434.34 383.078 329.81 263.772 159.424 147.201 111.445 100.682 81.892 58.359 h -80.814 -47.431 -36.303 -6.021 -116.569 -63.485 -1.642 -51.444 -128.246 -36.485 -5.838 z"/><path d="m -291.716,-546.723 c -12.907,0 -24.81,6.202 -32.29,16.783 -7.479,10.581 -9.395,23.989 -5.108,36.12 l 12.04,33.749 c 5.564,15.871 20.341,26.634 37.215,26.634 h 0.183 53.086 116.753 5.838 36.484 128.246 65.126 c 1.642,0 3.102,-1.094 4.743,-1.277 2.463,0.456 4.743,1.277 7.297,1.277 h 0.183 53.086 116.753 5.837 36.485 66.221 61.843 107.996 5.838 36.484 128.246 65.126 c 12.952,0 24.992,-6.385 32.472,-16.965 7.48,-10.58 9.213,-23.898 4.926,-36.121 l -11.857,-33.566 c -5.564,-15.871 -20.614,-26.634 -37.397,-26.634 H 756.87 628.623 592.139 586.301 478.305 404.605 350.242 313.757 307.92 191.166 126.223 126.04 c -1.643,0 -3.102,1.094 -4.743,1.277 -2.463,-0.456 -4.743,-1.277 -7.297,-1.277 h -0.183 -53.086 -128.246 -36.484 -5.838 -116.753 -64.943 c -0.046,0 -0.137,0 -0.183,0 z"/><path d="m 1123.181,-798.653 c -16.51,0 -31.195,10.49 -36.668,26.087 l -11.675,33.02 c -4.196,11.949 -2.555,24.992 4.743,35.391 7.297,10.398 19.245,16.601 31.924,16.601 h 63.85 125.874 35.755 5.655 20.432 v -0.183 h 4.379 v 7.479 21.162 5.655 23.35 12.405 125.874 52.174 c 0,16.509 10.489,31.195 26.087,36.667 l 33.019,11.675 c 11.949,4.196 24.992,2.372 35.391,-4.925 10.398,-7.297 16.602,-19.063 16.602,-31.742 v -63.849 -125.874 -35.755 -5.655 -20.432 h -0.183 v -59.835 c 0,-0.638 -0.365,-1.186 -0.365,-1.824 0,-0.73 0.365,-1.277 0.365,-2.007 0,-30.739 -24.719,-55.458 -55.458,-55.458 h -85.923 -35.755 -125.874 -52.175 z"/><path d="m -105.276,-1080.866 c 5.837,17.604 9.486,35.573 9.486,53.269 0,19.976 -5.108,40.134 -12.588,59.835 H -7.86 403.51 1598.218 c 36.576,0 62.39,25.722 62.39,62.754 v 569.169 810.519 568.986 c 0,37.033 -25.813,62.572 -62.39,62.572 h -168.379 c -0.365,42.688 -16.419,83.369 -46.884,113.104 h 215.263 c 97.051,0 175.129,-78.626 175.129,-175.677 V 474.681 -335.838 -905.007 c 0,-97.05 -78.078,-175.858 -175.129,-175.858 H 403.51 260.123 -105.276 Z"/></g></g></g></g></g><g fill="#0f9181"><g><g><g><g><g><g id="change2_1"><path d="m -539.998,-742.831 -547.643,199.757 c -41.958,16.783 -86.561,25.175 -131.711,25.175 h -0.365 c -0.137,0 -0.228,0 -0.365,0 -44.922,-0.091 -89.297,-8.392 -131.164,-25.175 l -547.461,-199.574 v 259.228 c -0.228,5.017 0,10.125 0,15.141 0.046,182.244 139.511,334.478 321.07,350.258 114.609,16.236 236.059,24.992 358.102,24.992 h 0.183 c 122.043,0 243.675,-8.756 358.285,-24.992 181.56,-15.78 321.024,-168.015 321.07,-350.258 0,-5.017 0.228,-10.125 0,-15.141 v -259.411 z"/><path d="m -1219.899,-1443.347 c -32.563,0 -65.901,6.293 -96.139,18.425 l -881.3,321.435 c -35.163,12.952 -52.721,44.147 -52.721,75.524 0,31.377 17.559,62.755 52.721,75.707 l 20.797,7.662 v 123.867 c 0,16.692 7.753,31.195 19.337,41.411 -9.805,37.58 -22.256,74.43 -38.492,109.638 -33.11,71.875 -79.401,137.823 -135.543,193.736 -4.88,4.743 -6.43,12.04 -4.013,18.425 l 47.978,128.063 c 3.375,8.574 12.952,13.043 21.709,10.034 18.379,-6.111 37.488,-9.122 56.37,-8.392 24.582,0.912 48.708,8.027 70.417,20.067 8.346,4.652 18.835,1.642 23.487,-6.659 0.273,-0.456 0.547,-1.003 0.775,-1.551 35.299,-80.906 59.744,-166.373 72.058,-253.937 9.532,-67.68 11.219,-136.272 6.385,-204.5 15.598,-9.851 26.452,-26.452 26.452,-46.336 v -63.12 l 693.584,253.025 c 30.237,12.131 63.576,18.334 96.139,18.425 h 0.547 c 32.745,0 66.494,-6.202 96.868,-18.425 l 881.118,-321.435 c 35.208,-12.952 52.722,-44.33 52.722,-75.707 0,-31.377 -17.514,-62.572 -52.722,-75.524 l -881.118,-321.435 c -30.374,-12.223 -64.123,-18.425 -96.868,-18.425 h -0.548 z"/></g></g></g></g></g></g></g></g></g></svg>