<svg width="106" height="23" viewBox="0 0 106 23" fill="none" xmlns="http://www.w3.org/2000/svg">
<path d="M0 8.62305H2.61097V20.5871H8.60308L7.9112 22.6678H0V8.62305Z" fill="#001313"/>
<path d="M11.6094 8.62305H20.3968L19.7175 10.6861H14.2229V14.5369H19.1721V16.5014H14.2229V20.6047H20.7251V22.6678H11.6094V8.62305Z" fill="#001313"/>
<path d="M22.5703 15.7336V15.577C22.5703 11.3929 25.4767 8.4082 29.5826 8.4082C32.5875 8.4082 35.259 9.78187 35.6429 13.1403H33.0218C32.7087 11.2742 31.4512 10.4687 29.623 10.4687C26.8731 10.4687 25.2823 12.5115 25.2823 15.5972V15.7538C25.2823 18.7587 26.6787 20.8217 29.623 20.8217C32.2567 20.8217 33.3374 19.2309 33.4106 17.2865H29.8755L30.5068 15.322H35.9837V16.6174C35.9837 20.5086 33.547 22.8645 29.58 22.8645C25.0828 22.8645 22.5703 19.8798 22.5703 15.7336Z" fill="#001313"/>
<path d="M42.1122 8.62305H45.5286L50.1648 22.6678H47.4578L46.3367 19.2033H40.9733L39.8749 22.6804H37.418L42.1122 8.62305ZM41.5819 17.2867H45.7256L43.6626 10.7643L41.5819 17.2867Z" fill="#001313"/>
<path d="M52.6992 8.62305H55.3127V20.5871H60.6154L61.3023 22.6678H52.6992V8.62305Z" fill="#001313"/>
<path d="M63.9922 8.62305H66.6259V22.6678H63.9922V8.62305Z" fill="#001313"/>
<path d="M73.9273 10.6861H70.0234V8.62305H79.8032L80.4749 10.6861H76.566V22.6678H73.9273V10.6861Z" fill="#001313"/>
<path d="M85.2059 8.62305H88.6249L93.2611 22.6678H90.5491L89.4305 19.2033H84.0671L82.9687 22.6804H80.5117L85.2059 8.62305ZM84.6757 17.2867H88.8244L86.7614 10.7643L84.6757 17.2867Z" fill="#001313"/>
<path d="M94.2461 18.3069H96.7712C96.948 19.7209 97.5287 20.9002 99.8948 20.9002C101.448 20.9002 102.546 20.0366 102.546 18.7387C102.546 17.4408 101.9 16.9534 99.6195 16.5797C96.2611 16.1277 94.6703 15.105 94.6703 12.4739C94.6703 10.176 96.6349 8.44629 99.5615 8.44629C102.592 8.44629 104.395 9.82248 104.67 12.5117H102.271C102.018 11.0396 101.172 10.4108 99.5615 10.4108C97.9504 10.4108 97.1449 11.1684 97.1449 12.2567C97.1449 13.398 97.6171 13.9662 100.051 14.3197C103.352 14.7717 105.061 15.7136 105.061 18.524C105.061 20.9583 102.998 22.8647 99.8948 22.8647C96.0515 22.8647 94.4405 20.9709 94.2461 18.3069Z" fill="#001313"/>
<path d="M45.7609 0H41.6172L43.6802 6.52239L45.7609 0Z" fill="#009494"/>
</svg>
