<?xml version="1.0" encoding="UTF-8" standalone="no"?>
<!DOCTYPE svg PUBLIC "-//W3C//DTD SVG 1.1//EN" "http://www.w3.org/Graphics/SVG/1.1/DTD/svg11.dtd">
<svg width="100%" height="100%" viewBox="0 0 124 24" version="1.1" xmlns="http://www.w3.org/2000/svg" xmlns:xlink="http://www.w3.org/1999/xlink" xml:space="preserve" xmlns:serif="http://www.serif.com/" style="fill-rule:evenodd;clip-rule:evenodd;stroke-linejoin:round;stroke-miterlimit:1.41421;">
    <g transform="matrix(0.549784,0,0,0.557692,-101.411,-304.596)">
        <path d="M191.387,571.266C190.959,572.435 189.663,573.039 188.488,572.613C187.316,572.188 186.709,570.887 187.138,569.718L191.704,557.181C192.134,556.009 193.43,555.405 194.604,555.832C195.774,556.258 196.379,557.556 195.951,558.73L191.387,571.266Z" style="fill:rgb(80,120,180);"/>
        <path d="M199.186,574.544C198.624,576.079 196.926,576.87 195.393,576.311C193.854,575.751 193.063,574.052 193.622,572.52L199.818,555.51C200.376,553.974 202.074,553.184 203.612,553.743C205.146,554.301 205.94,556.001 205.379,557.537L199.186,574.544Z" style="fill:rgb(97,151,207);"/>
        <path d="M209.004,578.545C208.251,580.602 205.976,581.664 203.92,580.914C201.86,580.166 200.796,577.887 201.546,575.833L209.688,553.479C210.439,551.418 212.717,550.356 214.775,551.106C216.834,551.856 217.895,554.129 217.146,556.191L209.004,578.545Z" style="fill:rgb(119,151,136);"/>
        <clipPath id="_clip1">
            <rect x="187" y="547.418" width="220" height="39.581"/>
        </clipPath>
        <g clip-path="url(#_clip1)">
            <path d="M221.329,583.55C220.336,586.269 217.325,587.672 214.603,586.683C211.88,585.688 210.475,582.679 211.467,579.959L222.062,550.872C223.055,548.147 226.064,546.746 228.79,547.737C231.511,548.727 232.914,551.74 231.924,554.464L221.329,583.55Z" style="fill:rgb(240,131,60);"/>
        </g>
        <path d="M243.125,560.734L248.215,574.307L253.325,560.734L256.267,560.734L256.267,576.888L254.232,576.888L254.232,563.448L254.189,563.448L249.142,576.888L247.308,576.888L242.263,563.448L242.22,563.448L242.22,576.888L240.185,576.888L240.185,560.734L243.125,560.734Z" style="fill:rgb(86,115,153);fill-rule:nonzero;"/>
        <path d="M266.275,570.848C266.035,571.028 265.716,571.159 265.325,571.241C264.931,571.325 264.523,571.391 264.091,571.443C263.664,571.494 263.23,571.555 262.79,571.623C262.354,571.692 261.962,571.8 261.617,571.949C261.269,572.1 260.986,572.315 260.767,572.591C260.546,572.871 260.438,573.246 260.438,573.729C260.438,574.044 260.503,574.309 260.63,574.528C260.758,574.744 260.926,574.922 261.13,575.056C261.334,575.192 261.569,575.288 261.842,575.349C262.114,575.41 262.399,575.441 262.702,575.441C263.335,575.441 263.878,575.352 264.331,575.181C264.782,575.006 265.152,574.789 265.44,574.528C265.726,574.264 265.937,573.98 266.071,573.672C266.208,573.366 266.275,573.077 266.275,572.806L266.275,570.848ZM269.398,576.844C269.066,577.037 268.606,577.135 268.018,577.135C267.521,577.135 267.125,576.996 266.83,576.718C266.537,576.44 266.388,575.983 266.388,575.349C265.86,575.983 265.248,576.44 264.545,576.718C263.842,576.996 263.086,577.135 262.27,577.135C261.744,577.135 261.24,577.077 260.767,576.955C260.292,576.834 259.879,576.645 259.534,576.391C259.186,576.133 258.912,575.796 258.708,575.383C258.504,574.968 258.403,574.466 258.403,573.878C258.403,573.216 258.516,572.671 258.744,572.249C258.97,571.828 259.265,571.484 259.634,571.221C260.006,570.956 260.426,570.756 260.902,570.621C261.377,570.485 261.864,570.371 262.363,570.281C262.889,570.177 263.39,570.096 263.866,570.045C264.341,569.994 264.761,569.916 265.123,569.817C265.483,569.72 265.771,569.578 265.98,569.387C266.191,569.2 266.297,568.926 266.297,568.562C266.297,568.14 266.218,567.8 266.059,567.545C265.903,567.287 265.699,567.092 265.45,566.957C265.2,566.819 264.922,566.73 264.612,566.684C264.302,566.64 264,566.615 263.695,566.615C262.882,566.615 262.202,566.771 261.66,567.079C261.118,567.389 260.825,567.974 260.777,568.834L258.854,568.834C258.886,568.108 259.037,567.498 259.308,567.001C259.579,566.504 259.939,566.099 260.395,565.789C260.846,565.481 261.362,565.259 261.943,565.124C262.522,564.986 263.146,564.92 263.81,564.92C264.338,564.92 264.862,564.959 265.382,565.031C265.903,565.108 266.374,565.262 266.796,565.495C267.216,565.728 267.557,566.056 267.814,566.477C268.07,566.899 268.198,567.448 268.198,568.125L268.198,574.13C268.198,574.581 268.226,574.912 268.277,575.124C268.33,575.334 268.51,575.441 268.81,575.441C268.975,575.441 269.172,575.41 269.398,575.349L269.398,576.844Z" style="fill:rgb(86,115,153);fill-rule:nonzero;"/>
        <path d="M272.995,565.191L272.995,567.045L273.041,567.045C273.84,565.629 275.105,564.92 276.842,564.92C277.608,564.92 278.251,565.024 278.765,565.236C279.276,565.446 279.691,565.742 280.008,566.119C280.325,566.495 280.546,566.945 280.675,567.466C280.802,567.984 280.87,568.563 280.87,569.193L280.87,576.888L278.942,576.888L278.942,568.971C278.942,568.245 278.731,567.673 278.311,567.249C277.891,566.826 277.308,566.616 276.569,566.616C275.981,566.616 275.472,566.706 275.04,566.888C274.61,567.069 274.255,567.325 273.967,567.656C273.682,567.987 273.466,568.378 273.322,568.822C273.18,569.267 273.108,569.754 273.108,570.28L273.108,576.888L271.186,576.888L271.186,565.191L272.995,565.191Z" style="fill:rgb(86,115,153);fill-rule:nonzero;"/>
        <path d="M292.142,569.343C291.998,568.822 291.78,568.359 291.485,567.952C291.192,567.542 290.815,567.22 290.354,566.979C289.894,566.738 289.354,566.616 288.737,566.616C288.091,566.616 287.539,566.744 287.086,567.002C286.634,567.258 286.262,567.594 285.977,568.006C285.691,568.423 285.485,568.893 285.355,569.42C285.228,569.95 285.163,570.486 285.163,571.029C285.163,571.601 285.23,572.154 285.367,572.69C285.504,573.226 285.718,573.698 286.01,574.105C286.306,574.513 286.685,574.841 287.155,575.089C287.621,575.337 288.185,575.461 288.85,575.461C289.514,575.461 290.069,575.334 290.513,575.076C290.957,574.822 291.317,574.483 291.588,574.06C291.857,573.638 292.054,573.154 292.176,572.612C292.296,572.068 292.354,571.511 292.354,570.936C292.354,570.393 292.286,569.863 292.142,569.343ZM285.23,565.191L285.23,566.774L285.276,566.774C285.593,566.127 286.092,565.656 286.769,565.36C287.448,565.066 288.194,564.92 289.008,564.92C289.915,564.92 290.702,565.085 291.374,565.419C292.044,565.751 292.603,566.196 293.045,566.763C293.491,567.329 293.83,567.981 294.053,568.721C294.281,569.46 294.391,570.242 294.391,571.075C294.391,571.904 294.283,572.687 294.065,573.426C293.846,574.164 293.515,574.811 293.069,575.36C292.622,575.91 292.066,576.343 291.394,576.661C290.726,576.978 289.944,577.136 289.054,577.136C288.768,577.136 288.446,577.106 288.094,577.046C287.738,576.986 287.388,576.888 287.04,576.75C286.692,576.615 286.368,576.432 286.056,576.196C285.749,575.964 285.487,575.674 285.276,575.326L285.23,575.326L285.23,581.344L283.308,581.344L283.308,565.191L285.23,565.191Z" style="fill:rgb(86,115,153);fill-rule:nonzero;"/>
        <path d="M297.977,572.939C298.166,573.49 298.428,573.951 298.757,574.319C299.09,574.69 299.479,574.971 299.923,575.169C300.37,575.364 300.84,575.462 301.337,575.462C301.834,575.462 302.306,575.364 302.75,575.169C303.197,574.971 303.586,574.69 303.917,574.319C304.25,573.951 304.51,573.49 304.697,572.939C304.886,572.389 304.98,571.758 304.98,571.051C304.98,570.341 304.886,569.712 304.697,569.16C304.51,568.611 304.25,568.145 303.917,567.769C303.586,567.392 303.197,567.106 302.75,566.908C302.306,566.714 301.834,566.616 301.337,566.616C300.84,566.616 300.37,566.714 299.923,566.908C299.479,567.106 299.09,567.392 298.757,567.769C298.428,568.145 298.166,568.611 297.977,569.16C297.79,569.712 297.694,570.341 297.694,571.051C297.694,571.758 297.79,572.389 297.977,572.939ZM296.021,568.641C296.263,567.894 296.623,567.244 297.108,566.694C297.59,566.144 298.188,565.71 298.894,565.395C299.604,565.077 300.418,564.919 301.337,564.919C302.27,564.919 303.091,565.077 303.792,565.395C304.495,565.71 305.086,566.144 305.568,566.694C306.05,567.244 306.41,567.894 306.653,568.641C306.895,569.387 307.015,570.192 307.015,571.051C307.015,571.91 306.895,572.709 306.653,573.448C306.41,574.186 306.05,574.834 305.568,575.383C305.086,575.934 304.495,576.362 303.792,576.672C303.091,576.979 302.27,577.135 301.337,577.135C300.418,577.135 299.604,576.979 298.894,576.672C298.188,576.362 297.59,575.934 297.108,575.383C296.623,574.834 296.263,574.186 296.021,573.448C295.781,572.709 295.661,571.91 295.661,571.051C295.661,570.192 295.781,569.387 296.021,568.641Z" style="fill:rgb(86,115,153);fill-rule:nonzero;"/>
        <path d="M318.259,576.888L315.886,567.592L315.838,567.592L313.483,576.888L311.405,576.888L307.649,565.191L309.775,565.191L312.422,574.76L312.468,574.76L314.82,565.191L316.925,565.191L319.368,574.76L319.411,574.76L322.037,565.191L324.029,565.191L320.294,576.888L318.259,576.888Z" style="fill:rgb(86,115,153);fill-rule:nonzero;"/>
        <path d="M332.808,568.63C332.633,568.224 332.4,567.872 332.105,567.578C331.812,567.284 331.466,567.05 331.066,566.878C330.667,566.705 330.223,566.616 329.743,566.616C329.244,566.616 328.795,566.705 328.397,566.878C327.996,567.05 327.65,567.289 327.367,567.592C327.077,567.891 326.854,568.242 326.688,568.642C326.522,569.042 326.424,569.466 326.395,569.919L333.11,569.919C333.084,569.466 332.981,569.037 332.808,568.63ZM333.271,576.14C332.395,576.805 331.294,577.137 329.969,577.137C329.033,577.137 328.224,576.986 327.538,576.685C326.851,576.384 326.27,575.959 325.805,575.417C325.339,574.874 324.986,574.227 324.754,573.471C324.521,572.716 324.389,571.895 324.358,571.005C324.358,570.115 324.492,569.304 324.763,568.561C325.037,567.824 325.416,567.181 325.908,566.636C326.398,566.096 326.978,565.674 327.648,565.371C328.32,565.069 329.057,564.92 329.856,564.92C330.895,564.92 331.759,565.134 332.443,565.564C333.132,565.994 333.682,566.541 334.097,567.205C334.512,567.869 334.798,568.592 334.954,569.375C335.117,570.16 335.179,570.906 335.148,571.615L326.395,571.615C326.378,572.128 326.438,572.615 326.575,573.076C326.712,573.534 326.928,573.942 327.23,574.298C327.533,574.651 327.914,574.935 328.385,575.146C328.85,575.356 329.402,575.463 330.034,575.463C330.85,575.463 331.517,575.274 332.04,574.895C332.558,574.519 332.899,573.947 333.07,573.177L334.968,573.177C334.711,574.489 334.145,575.477 333.271,576.14Z" style="fill:rgb(86,115,153);fill-rule:nonzero;"/>
        <path d="M338.928,565.191L338.928,567.656L338.971,567.656C339.437,566.706 340.015,566.004 340.69,565.552C341.371,565.101 342.228,564.89 343.27,564.92L343.27,566.955C342.502,566.955 341.844,567.062 341.302,567.273C340.759,567.485 340.32,567.792 339.989,568.2C339.658,568.607 339.415,569.102 339.269,569.683C339.115,570.262 339.041,570.93 339.041,571.685L339.041,576.888L337.114,576.888L337.114,565.191L338.928,565.191Z" style="fill:rgb(86,115,153);fill-rule:nonzero;"/>
        <path d="M354.989,576.694C354.055,577.063 353.112,577.248 352.159,577.248C350.952,577.248 349.874,577.026 348.926,576.581C347.974,576.134 347.17,575.537 346.505,574.782C345.84,574.029 345.334,573.161 344.988,572.181C344.64,571.199 344.47,570.184 344.47,569.126C344.47,567.948 344.63,566.831 344.957,565.766C345.278,564.705 345.761,563.773 346.404,562.974C347.045,562.174 347.844,561.537 348.799,561.062C349.757,560.586 350.878,560.35 352.159,560.35C353.035,560.35 353.861,560.45 354.638,560.654C355.414,560.859 356.11,561.179 356.719,561.615C357.329,562.052 357.84,562.608 358.255,563.277C358.67,563.949 358.954,564.762 359.105,565.71L356.954,565.71C356.851,565.093 356.654,564.561 356.366,564.115C356.081,563.671 355.728,563.306 355.306,563.018C354.883,562.734 354.403,562.517 353.868,562.375C353.33,562.23 352.766,562.159 352.159,562.159C351.18,562.159 350.338,562.356 349.637,562.746C348.936,563.14 348.362,563.654 347.918,564.298C347.472,564.938 347.146,565.671 346.934,566.489C346.723,567.311 346.618,568.152 346.618,569.014C346.618,569.859 346.738,570.67 346.98,571.445C347.22,572.222 347.575,572.908 348.043,573.506C348.511,574.1 349.085,574.576 349.771,574.929C350.46,575.284 351.254,575.463 352.159,575.463C353.004,575.463 353.75,575.326 354.398,575.053C355.046,574.782 355.594,574.408 356.04,573.935C356.484,573.46 356.82,572.901 357.048,572.259C357.271,571.62 357.37,570.93 357.341,570.189L352.183,570.189L352.183,568.381L359.263,568.381L359.263,576.887L357.905,576.887L357.341,574.875C356.71,575.718 355.922,576.326 354.989,576.694Z" style="fill:rgb(86,115,153);fill-rule:nonzero;"/>
        <path d="M363.574,565.191L363.574,567.656L363.617,567.656C364.085,566.706 364.658,566.004 365.338,565.552C366.017,565.101 366.876,564.89 367.915,564.92L367.915,566.955C367.147,566.955 366.49,567.062 365.947,567.273C365.405,567.485 364.968,567.792 364.637,568.2C364.303,568.607 364.063,569.102 363.91,569.683C363.761,570.262 363.686,570.93 363.686,571.685L363.686,576.888L361.764,576.888L361.764,565.191L363.574,565.191Z" style="fill:rgb(86,115,153);fill-rule:nonzero;"/>
        <path d="M370.56,572.939C370.747,573.49 371.006,573.951 371.34,574.319C371.669,574.69 372.06,574.971 372.504,575.169C372.948,575.364 373.418,575.462 373.92,575.462C374.417,575.462 374.89,575.364 375.331,575.169C375.775,574.971 376.164,574.69 376.495,574.319C376.829,573.951 377.088,573.49 377.275,572.939C377.465,572.389 377.563,571.758 377.563,571.051C377.563,570.341 377.465,569.712 377.275,569.16C377.088,568.611 376.829,568.145 376.495,567.769C376.164,567.392 375.775,567.106 375.331,566.908C374.89,566.714 374.417,566.616 373.92,566.616C373.418,566.616 372.948,566.714 372.504,566.908C372.06,567.106 371.669,567.392 371.34,567.769C371.006,568.145 370.747,568.611 370.56,569.16C370.368,569.712 370.274,570.341 370.274,571.051C370.274,571.758 370.368,572.389 370.56,572.939ZM368.599,568.641C368.844,567.894 369.206,567.244 369.686,566.694C370.169,566.144 370.764,565.71 371.474,565.395C372.185,565.077 372.996,564.919 373.92,564.919C374.851,564.919 375.672,565.077 376.37,565.395C377.071,565.71 377.664,566.144 378.146,566.694C378.631,567.244 378.991,567.894 379.234,568.641C379.476,569.387 379.596,570.192 379.596,571.051C379.596,571.91 379.476,572.709 379.234,573.448C378.991,574.186 378.631,574.834 378.146,575.383C377.664,575.934 377.071,576.362 376.37,576.672C375.672,576.979 374.851,577.135 373.92,577.135C372.996,577.135 372.185,576.979 371.474,576.672C370.764,576.362 370.169,575.934 369.686,575.383C369.206,574.834 368.844,574.186 368.599,573.448C368.359,572.709 368.237,571.91 368.237,571.051C368.237,570.192 368.359,569.387 368.599,568.641Z" style="fill:rgb(86,115,153);fill-rule:nonzero;"/>
        <path d="M389.266,576.888L389.266,575.032L389.22,575.032C388.812,575.757 388.291,576.287 387.658,576.626C387.026,576.966 386.28,577.136 385.418,577.136C384.65,577.136 384.01,577.035 383.496,576.83C382.985,576.626 382.57,576.336 382.25,575.959C381.934,575.582 381.71,575.134 381.583,574.614C381.454,574.092 381.391,573.516 381.391,572.882L381.391,565.191L383.314,565.191L383.314,573.109C383.314,573.832 383.53,574.406 383.95,574.828C384.37,575.25 384.95,575.461 385.69,575.461C386.28,575.461 386.789,575.372 387.216,575.19C387.648,575.01 388.003,574.754 388.291,574.421C388.579,574.086 388.795,573.701 388.937,573.256C389.078,572.812 389.15,572.325 389.15,571.796L389.15,565.191L391.075,565.191L391.075,576.888L389.266,576.888Z" style="fill:rgb(86,115,153);fill-rule:nonzero;"/>
        <path d="M402.42,569.343C402.274,568.822 402.058,568.359 401.765,567.952C401.47,567.542 401.09,567.22 400.632,566.979C400.171,566.738 399.634,566.616 399.012,566.616C398.366,566.616 397.817,566.744 397.361,567.002C396.912,567.258 396.54,567.594 396.254,568.006C395.971,568.423 395.762,568.893 395.635,569.42C395.503,569.95 395.438,570.486 395.438,571.029C395.438,571.601 395.508,572.154 395.645,572.69C395.777,573.226 395.995,573.698 396.286,574.105C396.583,574.513 396.962,574.841 397.43,575.089C397.898,575.337 398.462,575.461 399.13,575.461C399.79,575.461 400.346,575.334 400.788,575.076C401.237,574.822 401.594,574.483 401.866,574.06C402.134,573.638 402.334,573.154 402.454,572.612C402.574,572.068 402.634,571.511 402.634,570.936C402.634,570.393 402.562,569.863 402.42,569.343ZM395.508,565.191L395.508,566.774L395.554,566.774C395.87,566.127 396.367,565.656 397.049,565.36C397.723,565.066 398.472,564.92 399.283,564.92C400.193,564.92 400.98,565.085 401.65,565.419C402.319,565.751 402.881,566.196 403.32,566.763C403.771,567.329 404.105,567.981 404.328,568.721C404.558,569.46 404.669,570.242 404.669,571.075C404.669,571.904 404.561,572.687 404.342,573.426C404.122,574.164 403.79,574.811 403.349,575.36C402.902,575.91 402.343,576.343 401.671,576.661C401.002,576.978 400.224,577.136 399.334,577.136C399.046,577.136 398.724,577.106 398.369,577.046C398.018,576.986 397.666,576.888 397.32,576.75C396.972,576.615 396.643,576.432 396.334,576.196C396.024,575.964 395.765,575.674 395.554,575.326L395.508,575.326L395.508,581.344L393.588,581.344L393.588,565.191L395.508,565.191Z" style="fill:rgb(86,115,153);fill-rule:nonzero;"/>
        <path d="M405.235,561.801C405.305,561.801 405.372,561.8 405.437,561.796C405.499,561.791 405.554,561.778 405.605,561.754C405.65,561.733 405.691,561.7 405.725,561.656C405.749,561.611 405.766,561.548 405.766,561.469C405.766,561.402 405.751,561.349 405.727,561.306C405.701,561.268 405.665,561.237 405.626,561.215C405.583,561.195 405.535,561.18 405.48,561.171C405.43,561.163 405.374,561.16 405.324,561.16L404.906,561.16L404.906,561.801L405.235,561.801ZM405.374,560.906C405.612,560.906 405.79,560.952 405.905,561.049C406.022,561.145 406.08,561.287 406.08,561.483C406.08,561.665 406.027,561.799 405.929,561.881C405.826,561.966 405.701,562.017 405.55,562.032L406.128,562.922L405.79,562.922L405.24,562.056L404.906,562.056L404.906,562.922L404.592,562.922L404.592,560.906L405.374,560.906ZM403.949,562.496C404.021,562.676 404.122,562.833 404.249,562.965C404.376,563.097 404.527,563.201 404.702,563.275C404.875,563.352 405.065,563.39 405.266,563.39C405.468,563.39 405.65,563.352 405.826,563.275C405.998,563.201 406.145,563.097 406.274,562.965C406.406,562.833 406.505,562.676 406.574,562.496C406.646,562.315 406.685,562.119 406.685,561.908C406.685,561.7 406.646,561.509 406.574,561.33C406.505,561.15 406.406,560.998 406.274,560.865C406.145,560.734 405.998,560.634 405.826,560.556C405.65,560.482 405.468,560.443 405.266,560.443C405.065,560.443 404.875,560.482 404.702,560.556C404.527,560.634 404.376,560.734 404.249,560.865C404.122,560.998 404.021,561.15 403.949,561.33C403.877,561.509 403.838,561.7 403.838,561.908C403.838,562.119 403.877,562.315 403.949,562.496ZM403.668,561.228C403.757,561.019 403.886,560.839 404.04,560.682C404.201,560.531 404.383,560.408 404.594,560.32C404.806,560.235 405.029,560.191 405.266,560.191C405.504,560.191 405.727,560.235 405.934,560.32C406.145,560.408 406.33,560.531 406.483,560.682C406.642,560.839 406.766,561.019 406.86,561.228C406.951,561.439 406.999,561.665 406.999,561.908C406.999,562.155 406.951,562.385 406.86,562.596C406.766,562.81 406.642,562.993 406.483,563.148C406.33,563.302 406.145,563.424 405.934,563.51C405.727,563.594 405.504,563.639 405.266,563.639C405.029,563.639 404.806,563.594 404.594,563.51C404.383,563.424 404.201,563.302 404.04,563.148C403.886,562.993 403.757,562.81 403.668,562.596C403.57,562.385 403.526,562.155 403.526,561.908C403.526,561.665 403.57,561.439 403.668,561.228Z" style="fill:rgb(86,115,153);fill-rule:nonzero;"/>
    </g>
</svg>
