<?xml version="1.0" encoding="UTF-8"?>
<!-- Created with Inkscape (http://www.inkscape.org/) -->
<svg width="827" height="338" version="1.1" xmlns="http://www.w3.org/2000/svg">
<title>Merck Sharp Dohme logo</title>
<desc>American pharmaceutical corporation</desc>
 <path d="m166.5 303.3204c-31.12529-6.96615-51.72379-29.9817-55.99936-62.57038l-0.62319-4.75h69.70588 69.70588l-0.59671 6.38998c-0.86223 9.23346-5.35491 21.8376-10.69733 30.01122-9.64425 14.75518-26.53735 26.70068-42.55953 30.09482-6.4063 1.35712-24.28004 1.86633-28.93564 0.82436z" fill="#009996"/>
 <path d="m590 239.0303c-12.00079-1.3507-21.65235-5.12412-29.5-11.53346-7.7899-6.36218-13.5-19.56178-13.5-31.20692v-5.2899h13.79689 13.79688l1.11028 6.48176c1.41325 8.25048 4.26317 12.82742 10.13298 16.27347 4.0545 2.38032 5.70689 2.73251 12.66297 2.69897 16.26119-0.0784 27.40819-9.37081 24.93674-20.78788-1.69762-7.84229-8.11844-12.00379-25.46416-16.50398-13.50044-3.50257-20.57873-6.46219-28.78802-12.03701-7.72229-5.24411-13.67077-12.23402-16.27581-19.12533-2.99923-7.93405-2.42073-20.26034 1.32858-28.30897 5.22843-11.2238 18.69349-21.12348 33.76267-24.82271 8.56057-2.101477 25.22347-1.568805 32.5 1.038945 16.57093 5.938662 27.16602 18.89125 29.13137 35.61338l0.64399 5.47935h-13.57029c-14.86216 0-13.61735 0.53267-15.19008-6.5-1.77127-7.92047-7.75254-12.79935-17.23322-14.05701-18.92493-2.51048-31.54174 16.272-19.01293 28.30431 3.76844 3.61909 6.55211 4.7804 24.73116 10.3175 24.04932 7.32511 34.06685 13.45918 39.8395 24.39505 2.4536 4.6482 2.6605 5.97498 2.6605 17.06118 0 11.54127-0.1297 12.28449-3.24993 18.62258-7.17355 14.57154-22.52495 22.85685-44.75007 24.15204-4.4 0.25642-10.925 0.137-14.5-0.26537z"/>
 <path d="m441.6283 187.9488c-11.42958-26.64686-21.19668-48.87633-21.70467-49.39883-0.56519-0.58133-0.92362 17.95964-0.92362 47.77673v48.72674l-14.75-0.27674-14.75-0.27673-0.25683-69.21278-0.25684-69.21278 22.09339-0.287222c13.87327-0.180358 22.39843 0.08484 22.91326 0.712778 0.45093 0.55 6.99104 16.43344 14.53358 35.29654 7.54253 18.86309 13.9038 34.10643 14.13615 33.87408s6.61559-15.89079 14.18496-34.79654l13.76251-34.37408 45.38982-0.537549v69.51878 69.51877h-15-15v-48.5c0-26.675-0.3375-48.48096-0.75-48.45768-0.4125 0.0233-9.23845 19.93577-19.61322 44.25-10.37478 24.31422-19.84517 46.43465-21.04533 49.15651l-2.1821 4.94882-20.78106-48.44882z"/>
 <path d="m101 234.0302c-15.95503-2.11087-28.55034-8.30077-39.5-19.41206-15.94157-16.1769-21.88391-32.20802-20.43094-55.1181 1.063744-16.77285 6.730062-29.64058 18.39517-41.77389 12.29578-12.7893 26.21472-19.68202 42.90318-21.24585l7.63259-0.715232v4.957525c0 11.71475 6.41272 28.00329 15.5385 39.46834 8.58313 10.7833 24.0902 20.37576 38.24668 23.65887l7.71482 1.78919-4.9607 0.77339c-14.43576 2.2506-32.63992 13.32623-41.96838 25.53408-8.92771 11.6834-13.27442 22.25568-14.40738 35.04239-0.74313 8.38712-0.48585 8.18943-9.16354 7.04135z" fill="#009996"/>
 <path d="m249.9826 231.25c-0.0335-7.24469-2.98357-17.84113-7.53284-27.05781-5.48598-11.11446-14.11553-20.81053-24.79459-27.85895-7.95701-5.2518-21.02694-10.25707-27.15521-10.39936-3.73551-0.0867-3.59663-0.18064 2.10031-1.42004 7.33409-1.59558 19.79846-6.47501 25.07297-9.81533 16.437-10.40945 28.89026-30.24739 31.6382-50.39937l1.13168-8.29914h4.11846c11.4618 0 28.13447 6.94607 39.8316 16.59441 19.70743 16.25561 28.89722 44.31022 22.5912 68.96652-7.31583 28.60462-29.04833 48.00429-58.67597 52.37755-3.95536 0.58383-7.44286 1.06152-7.75 1.06152-0.30715 0-0.56626-1.6875-0.57581-3.75z" fill="#009996"/>
 <path d="m666 94.7793v70.21875 70.2207l29.25-0.47266c26.29776-0.42523 30.10352-0.70155 37.70312-2.73242 4.64902-1.24237 10.46425-3.12148 12.92383-4.17578 13.07063-5.60273 26.20765-18.02247 32.08985-30.33789 9.85484-20.63281 9.13868-48.03116-1.76172-67.32812-6.55995-11.61308-14.27586-18.99584-26.31836-25.18165-15.87393-8.153878-21.50791-9.146687-55.13672-9.720699l-28.75-0.490234zm30 26.2207 9.25 0.01758c20.42611 0.03835 33.34676 5.60749 41.76367 18.00195 5.72179 8.4257 7.28255 14.96926 6.76172 28.3457-0.53207 13.66489-2.7109 19.91915-9.65039 27.70508-5.55554 6.23317-12.12054 10.1722-20.66016 12.39649-3.5278 0.91887-10.20798 1.5332-16.67578 1.5332h-10.78906v-44-44z"/>
 <path d="m111.4394 88.83306c1.84155-16.2772 10.76557-31.86231 25.06062-43.76645 5.9281-4.936596 18.84411-11.40025 27.05325-13.53846 6.64764-1.731489 21.62452-2.011601 29.33829-0.548714 19.52855 3.703514 39.2674 18.43276 48.00804 35.82388 4.51008 8.973648 8.10042 19.96662 8.10042 24.80203v3.394665h-69.12917-69.12916l0.69771-6.166945z" fill="#009996"/>
</svg>